<mxfile host="app.diagrams.net" modified="2023-08-03T18:42:10.559Z" agent="Mozilla/5.0 (Windows NT 10.0; Win64; x64; rv:109.0) Gecko/20100101 Firefox/115.0" version="21.5.2" etag="Tvci7ushqOUZy2WfBi9a" type="github">
  <diagram name="Page-1" id="5Xof6ni6gehnlC4QjmLu">
    <mxGraphModel>
      <root>
        <mxCell id="0" />
        <mxCell id="1" parent="0" />
      </root>
    </mxGraphModel>
  </diagram>
</mxfile>
